<?xml version="1.0" encoding="utf-8"?>
<!-- Generator: Adobe Illustrator 26.0.3, SVG Export Plug-In . SVG Version: 6.00 Build 0)  -->
<svg version="1.1" id="레이어_1" xmlns="http://www.w3.org/2000/svg" xmlns:xlink="http://www.w3.org/1999/xlink" x="0px"
	 y="0px" viewBox="0 0 1920 1080" style="enable-background:new 0 0 1920 1080;" xml:space="preserve">
<style type="text/css">
	.st0{fill:none;stroke:#000000;stroke-width:3.371;stroke-miterlimit:10;}
	.st1{fill:none;stroke:#000000;stroke-width:2;stroke-miterlimit:10;}
	.st2{fill:none;stroke:#000000;stroke-width:13.4839;stroke-miterlimit:10;}
	.st3{fill:none;stroke:#000000;stroke-width:6.7419;stroke-miterlimit:10;}
</style>
<path class="st0" d="M389,540.2c0,0-42.6,164.3,29.1,226.2c1.2,1,2.5,2.1,3.7,3.1c43.8,36.3,104.6,43.7,156.7,20.8
	c36.2-15.9,95.2-26.6,138.5,41.6c0,0,49.9,88.1-51.6,151.7c0,0-2.6,1.6-7.3,4.2c-151.7,81.9-338.2-18-354.2-189.6
	C296.2,716.7,308.5,615.9,389,540.2z"/>
<path class="st0" d="M301.9,156.5c0,0,73.9-25.8,105,4.8c0.5,0.5,1,1,1.6,1.6c18.3,18.7,24,46.4,15.4,71.2
	c-6,17.2-8.7,44.7,24.3,62.1c0,0,42.3,19.6,67.7-29.4c0,0,0.6-1.2,1.7-3.5c31.9-72.7-21-154.7-100.4-155.6
	C379.5,107.2,333.7,116.7,301.9,156.5z"/>
<path class="st1" d="M63,16.9c0,0-23.7,29.9-14.6,49.1c0.2,0.3,0.3,0.6,0.5,1c5.7,11.4,17.5,18.5,30.3,18.5c8.9,0,22,3.2,24.7,21.1
	c0,0,2.3,22.6-24.4,26.5c0,0-0.7,0.1-1.9,0.2C39.1,136.4,9.8,98.9,22,62.2C27.9,44.8,39.5,25.2,63,16.9z"/>
<path class="st2" d="M1098.8,227.7c0,0,0,36.6-84.8,70.2"/>
<path class="st0" d="M699,81.7c4.4-3.2,50.6-52.1,126.5-38.7"/>
<path class="st3" d="M794.3,433c0,0-23.9-67.4-134.8-55"/>
<path class="st0" d="M1014,742.3c1.8,0,159.5,2.1,118.2,80.9"/>
<path class="st2" d="M860.8,840.1c0,0-49.6,15.9-131.7-84.4"/>
<path class="st3" d="M1009.8,518.4c2.8-3.5,35.6-36.6,89-27.2"/>
</svg>
