<?xml version="1.0" encoding="utf-8"?>
<!-- Generator: Adobe Illustrator 26.0.3, SVG Export Plug-In . SVG Version: 6.00 Build 0)  -->
<svg version="1.1" id="레이어_1" xmlns="http://www.w3.org/2000/svg" xmlns:xlink="http://www.w3.org/1999/xlink" x="0px"
	 y="0px" viewBox="0 0 50 50" style="enable-background:new 0 0 50 50;" xml:space="preserve">
<style type="text/css">
	.st0{fill:#231815;}
	.st1{fill:none;stroke:#FFFFFF;stroke-width:0.8303;stroke-miterlimit:10;}
</style>
<g>
	<path class="st0" d="M49.8,30.5L49.8,30.5l-1.9-3.8c-1.9-1.9-5.7,0-5.7,0l0,0c1.9-3.8,1.9-5.7,1.9-5.7c-5.7-13.4-21-19.1-21-19.1
		l7.6,7.6c0,1.9,1.9,3.8,1.9,3.8c0,1.9,0,3.8,0,3.8c-1.9,0,0,1.9,0,1.9c-1.9,0,0,1.9,0,1.9h-1.9c-1.9,1.9,0,3.8,0,3.8l0,0
		c-1.9,0-5.7,0-5.7,0l-3.8-1.9c-7.6-1.9-13.4-9.5-13.4-9.5c5.7,11.4,15.3,13.4,15.3,13.4c-17.2,0-22.9,7.6-22.9,7.6
		s5.7-3.8,11.4-3.8s15.3,0,15.3,0l0,0c-1.9,0,0,1.9,0,1.9C25,36.2,25,38.1,25,38.1V40c-3.8,0-1.9,1.9-1.9,1.9
		c-3.8,0-3.8,1.9-3.8,1.9c-1.9,0-11.4,3.8-11.4,3.8c22.9,1.9,30.5-11.4,30.5-11.4c3.8,0,7.6-1.9,7.6-1.9s0-1.9,1.9-1.9
		C47.9,30.5,49.8,30.5,49.8,30.5z"/>
	<line class="st1" x1="5.9" y1="-3.9" x2="5.9" y2="55.3"/>
	<line class="st1" x1="13.6" y1="-3.9" x2="13.6" y2="55.3"/>
	<line class="st1" x1="11.6" y1="-3.9" x2="11.6" y2="55.3"/>
	<line class="st1" x1="9.7" y1="-3.9" x2="9.7" y2="55.3"/>
	<line class="st1" x1="7.8" y1="-3.9" x2="7.8" y2="55.3"/>
	<line class="st1" x1="19.3" y1="-3.9" x2="19.3" y2="55.3"/>
	<line class="st1" x1="30.7" y1="-2" x2="30.7" y2="57.2"/>
	<line class="st1" x1="15.5" y1="-2" x2="15.5" y2="57.2"/>
	<line class="st1" x1="17.4" y1="-2" x2="17.4" y2="57.2"/>
	<line class="st1" x1="4" y1="-2" x2="4" y2="57.2"/>
	<line class="st1" x1="2.1" y1="-2" x2="2.1" y2="57.2"/>
	<line class="st1" x1="21.2" y1="-0.1" x2="21.2" y2="57.2"/>
	<line class="st1" x1="23.1" y1="-0.1" x2="23.1" y2="59.1"/>
	<line class="st1" x1="26.9" y1="-0.1" x2="26.9" y2="59.1"/>
	<line class="st1" x1="25" y1="-0.1" x2="25" y2="59.1"/>
	<line class="st1" x1="28.8" y1="-0.1" x2="28.8" y2="59.1"/>
	<line class="st1" x1="32.6" y1="-0.1" x2="32.6" y2="59.1"/>
	<line class="st1" x1="34.5" y1="-0.1" x2="34.5" y2="59.1"/>
	<line class="st1" x1="36.4" y1="-0.1" x2="36.4" y2="59.1"/>
	<line class="st1" x1="38.4" y1="-0.1" x2="38.4" y2="59.1"/>
	<line class="st1" x1="40.3" y1="-0.1" x2="40.3" y2="59.1"/>
	<line class="st1" x1="42.2" y1="-0.1" x2="42.2" y2="59.1"/>
	<line class="st1" x1="44.1" y1="-0.1" x2="44.1" y2="59.1"/>
	<line class="st1" x1="46" y1="-2" x2="46" y2="57.2"/>
	<line class="st1" x1="47.9" y1="-2" x2="47.9" y2="57.2"/>
</g>
</svg>
