<?xml version="1.0" encoding="utf-8"?>
<!-- Generator: Adobe Illustrator 26.0.3, SVG Export Plug-In . SVG Version: 6.00 Build 0)  -->
<svg version="1.1" id="레이어_1" xmlns="http://www.w3.org/2000/svg" xmlns:xlink="http://www.w3.org/1999/xlink" x="0px"
	 y="0px" viewBox="0 0 9 5" style="enable-background:new 0 0 9 5;" xml:space="preserve">
<style type="text/css">
	.st0{fill:#231815;}
	.st1{fill:none;stroke:#FFFFFF;stroke-width:4.351793e-02;stroke-miterlimit:10;}
	.st2{fill:none;stroke:#FFFFFF;stroke-width:8.703586e-02;stroke-miterlimit:10;}
</style>
<path class="st0" d="M8.6,3L8.3,2.9c0-0.1,0-0.1-0.1-0.2c-0.2-0.3-0.6,0-0.6,0l0,0C8.1,2.3,8,1.9,8,1.9C7.4,0.4,5.8,0,5.8,0l0.8,0.9
	C6.5,1.1,6.7,1.3,6.7,1.3C6.6,1.5,6.8,1.7,6.8,1.7c-0.1,0-0.1,0.2-0.1,0.2c-0.2,0,0,0.2,0,0.2H6.6C6.3,2.3,6.7,2.5,6.7,2.5l0,0
	c-0.3,0-0.7,0-0.7,0L5.5,2.3C4.7,2,4.1,1.2,4.1,1.2c0.6,1.2,1.5,1.4,1.5,1.4c-1.8,0-2.3,0.7-2.3,0.7S4,3,4.6,3.1
	c0.7,0.1,1.7,0.1,1.7,0.1v0.1c-0.2,0-0.1,0.3-0.1,0.3c-0.1,0-0.1,0.3-0.1,0.3C5.9,3.9,6,4.1,6,4.1c-0.3,0-0.2,0.2-0.2,0.2
	c-0.5,0-0.4,0.3-0.4,0.3C5.2,4.5,4.2,5,4.2,5c2.4,0.1,3.2-1.2,3.2-1.2c0.5-0.2,0.8-0.5,0.8-0.5S8.3,3.2,8.3,3C8.4,3.1,8.5,3.1,8.6,3
	z"/>
<path class="st0" d="M3.3,1.8L3.3,1.8L3.2,1.6c-0.1-0.1-0.3,0-0.3,0l0,0C3,1.4,3,1.3,3,1.3c-0.3-0.7-1.1-1-1.1-1l0.4,0.4
	c0,0.1,0.1,0.2,0.1,0.2c0,0.1,0,0.2,0,0.2c-0.1,0,0,0.1,0,0.1c-0.1,0,0,0.1,0,0.1H2.3c-0.1,0.1,0,0.2,0,0.2l0,0c-0.1,0-0.3,0-0.3,0
	L1.8,1.4C1.4,1.3,1.1,0.9,1.1,0.9c0.3,0.6,0.8,0.7,0.8,0.7C1,1.6,0.7,2,0.7,2S1,1.8,1.3,1.8s0.8,0,0.8,0l0,0c-0.1,0,0,0.1,0,0.1
	C2,2.1,2,2.2,2,2.2v0.1c-0.2,0-0.1,0.1-0.1,0.1c-0.2,0-0.2,0.1-0.2,0.1c-0.1,0-0.6,0.2-0.6,0.2c1.2,0.1,1.6-0.6,1.6-0.6
	C2.9,2.1,3.1,2,3.1,2s0-0.1,0.1-0.1C3.2,1.8,3.3,1.8,3.3,1.8z"/>
<line class="st1" x1="1" y1="0" x2="1" y2="3.1"/>
<line class="st1" x1="1.4" y1="0" x2="1.4" y2="3.1"/>
<line class="st1" x1="1.3" y1="0" x2="1.3" y2="3.1"/>
<line class="st1" x1="1.2" y1="0" x2="1.2" y2="3.1"/>
<line class="st1" x1="1.1" y1="0" x2="1.1" y2="3.1"/>
<line class="st1" x1="1.7" y1="0" x2="1.7" y2="3.1"/>
<line class="st1" x1="2.3" y1="0.1" x2="2.3" y2="3.2"/>
<line class="st1" x1="1.5" y1="0.1" x2="1.5" y2="3.2"/>
<line class="st1" x1="1.6" y1="0.1" x2="1.6" y2="3.2"/>
<line class="st1" x1="0.9" y1="0.1" x2="0.9" y2="3.2"/>
<line class="st1" x1="0.8" y1="0.1" x2="0.8" y2="3.2"/>
<line class="st1" x1="1.8" y1="0.2" x2="1.8" y2="3.2"/>
<line class="st1" x1="1.9" y1="0.2" x2="1.9" y2="3.3"/>
<line class="st1" x1="2.1" y1="0.2" x2="2.1" y2="3.3"/>
<line class="st1" x1="2" y1="0.2" x2="2" y2="3.3"/>
<line class="st1" x1="2.2" y1="0.2" x2="2.2" y2="3.3"/>
<line class="st1" x1="2.4" y1="0.2" x2="2.4" y2="3.3"/>
<line class="st1" x1="2.5" y1="0.2" x2="2.5" y2="3.3"/>
<line class="st1" x1="2.6" y1="0.2" x2="2.6" y2="3.3"/>
<line class="st1" x1="2.7" y1="0.2" x2="2.7" y2="3.3"/>
<line class="st1" x1="2.8" y1="0.2" x2="2.8" y2="3.3"/>
<line class="st1" x1="2.9" y1="0.2" x2="2.9" y2="3.3"/>
<line class="st1" x1="3" y1="0.2" x2="3" y2="3.3"/>
<line class="st1" x1="3.1" y1="0.1" x2="3.1" y2="3.2"/>
<line class="st1" x1="3.2" y1="0.1" x2="3.2" y2="3.2"/>
<line class="st2" x1="3.9" y1="-0.6" x2="3.9" y2="5.6"/>
<line class="st2" x1="3.3" y1="-0.1" x2="3.3" y2="6"/>
<line class="st2" x1="4.3" y1="-0.4" x2="4.3" y2="5.9"/>
<line class="st2" x1="4.1" y1="-0.5" x2="4.1" y2="5.8"/>
<line class="st2" x1="5.5" y1="-0.6" x2="5.5" y2="5.6"/>
<line class="st2" x1="6.7" y1="-0.4" x2="6.7" y2="5.8"/>
<line class="st2" x1="4.5" y1="-0.2" x2="4.5" y2="6"/>
<line class="st2" x1="5.1" y1="-0.3" x2="5.1" y2="5.9"/>
<line class="st2" x1="4.7" y1="-0.3" x2="4.7" y2="5.9"/>
<line class="st2" x1="3.7" y1="-0.3" x2="3.7" y2="5.9"/>
<line class="st2" x1="3.5" y1="-0.3" x2="3.5" y2="5.9"/>
<line class="st2" x1="5.7" y1="-0.2" x2="5.7" y2="6.1"/>
<line class="st2" x1="5.9" y1="-0.2" x2="5.9" y2="6"/>
<line class="st2" x1="6.1" y1="-0.2" x2="6.1" y2="5.9"/>
<line class="st2" x1="6.3" y1="-0.2" x2="6.3" y2="6"/>
<line class="st2" x1="6.5" y1="-0.1" x2="6.5" y2="6"/>
<line class="st2" x1="6.9" y1="-0.1" x2="6.9" y2="6"/>
<line class="st2" x1="7.1" y1="-0.1" x2="7.1" y2="6"/>
<line class="st2" x1="7.3" y1="-0.1" x2="7.3" y2="6"/>
<line class="st2" x1="7.5" y1="-0.1" x2="7.5" y2="6"/>
<line class="st2" x1="7.7" y1="-0.1" x2="7.7" y2="6"/>
<line class="st2" x1="7.9" y1="-0.2" x2="7.9" y2="6"/>
<line class="st2" x1="8.1" y1="-0.2" x2="8.1" y2="5.9"/>
<line class="st2" x1="8.3" y1="-0.3" x2="8.3" y2="5.9"/>
<line class="st2" x1="8.5" y1="-0.3" x2="8.5" y2="5.9"/>
<line class="st2" x1="4.9" y1="-0.9" x2="4.9" y2="5.3"/>
<line class="st2" x1="5.3" y1="-1" x2="5.3" y2="5.3"/>
</svg>
